<?xml version="1.0" encoding="utf-8"?>
<!-- Generator: Adobe Illustrator 26.2.1, SVG Export Plug-In . SVG Version: 6.00 Build 0)  -->
<svg version="1.1" id="Vrstva_1" xmlns="http://www.w3.org/2000/svg" xmlns:xlink="http://www.w3.org/1999/xlink" x="0px" y="0px"
	 viewBox="0 0 700 700" style="enable-background:new 0 0 700 700;" xml:space="preserve">
<g>
	<path d="M533.7,121.5H250.9c-45.4,0-82.3,37-82.3,82.3v2.2h-2.2c-45.4,0-82.3,37-82.3,82.3v207.8c0,45.4,37,82.3,82.3,82.3h282.8
		c45.4,0,82.3-37,82.3-82.3v-2.2h2.2c45.4,0,82.3-37,82.3-82.3V204.4C616,158.5,579,121.5,533.7,121.5L533.7,121.5z M166.3,230.2
		h282.8c32.5,0,58.2,26.3,58.2,58.2v171.4L402.1,339.4c-6.7-7.8-16.8-12.3-27.4-12.3s-20.7,4.5-28,12.3l-91.3,105.3L224,409.9
		c-6.7-7.3-15.7-11.2-25.2-11.2s-19,3.9-25.2,11.2l-65.5,71.7V288.4C108.1,256.5,134.4,230.2,166.3,230.2L166.3,230.2z M449.1,554.4
		H166.3c-25.8,0-47.6-17.4-55.4-40.9l79.5-87.9c2.2-2.2,4.5-3.4,7.8-3.4c2.8,0,5.6,1.1,7.8,3.4l40.3,44.2c2.2,2.8,5.6,3.9,9,3.9
		s6.7-1.7,9-3.9l100.2-115.4c2.8-2.8,6.2-4.5,10.1-4.5c3.4,0.6,7.3,1.7,9.5,4.5l123.2,141.1C507.4,528.6,481,554.4,449.1,554.4
		L449.1,554.4z M591.9,411.6c0,32.5-26.3,58.8-58.2,58.8h-2.2l0-182c0-45.4-37-82.3-82.3-82.3H192.6v-2.2
		c0-32.5,26.3-58.2,58.2-58.2h282.8c31.9,0,58.2,26.3,58.2,58.2L591.9,411.6z"/>
	<path d="M194.3,361.8c25.2,0,45.4-20.7,45.4-45.4S219,271,194.3,271c-24.6,0-45.4,20.7-45.4,45.4C149,341,169.1,361.8,194.3,361.8z
		 M194.3,294.6c11.8,0,21.8,9.5,21.8,21.8c0,11.8-9.5,21.8-21.8,21.8c-12.3,0-21.8-9.5-21.8-21.8C173,304.1,182.6,294.6,194.3,294.6
		z"/>
</g>
</svg>
