<?xml version="1.0" encoding="utf-8"?>
<!-- Generator: Adobe Illustrator 26.2.1, SVG Export Plug-In . SVG Version: 6.00 Build 0)  -->
<svg version="1.1" id="Vrstva_1" xmlns="http://www.w3.org/2000/svg" xmlns:xlink="http://www.w3.org/1999/xlink" x="0px" y="0px"
	 viewBox="0 0 700 700" style="enable-background:new 0 0 700 700;" xml:space="preserve">
<g>
	<path d="M559.2,146.2h-82.3V121c0-8.4-7.3-15.7-15.7-15.7c-8.4,0-15.7,7.3-15.7,15.7v25.8l-190.4,0V121c0-8.4-7.3-15.7-15.7-15.7
		c-8.4,0-15.7,7.3-15.7,15.7v25.8l-82.3,0c-31.9,0-57.1,25.8-57.1,57.1v333.8c0,31.9,25.8,57.1,57.1,57.1h417.2
		c31.9,0,57.1-25.8,57.1-57.1V203.8C616.3,171.9,590.5,146.2,559.2,146.2L559.2,146.2z M141.4,177.5h82.3v25.8
		c0,8.4,7.3,15.7,15.7,15.7c8.4,0,15.7-7.3,15.7-15.7v-25.8h190.4v25.8c0,8.4,7.3,15.7,15.7,15.7c8.4,0,15.7-7.3,15.7-15.7v-25.8
		h82.3c14.6,0,26.3,11.8,26.3,26.3v58.8H115.6v-58.8C115.6,189.3,127.4,177.5,141.4,177.5L141.4,177.5z M559.2,563.4H141.4
		c-14.6,0-26.3-11.8-26.3-26.3V294h469.3v243.6C584.9,551.6,573.2,563.4,559.2,563.4L559.2,563.4z"/>
	<path d="M370.4,362.9h-40.9c-8.4,0-15.7,7.3-15.7,15.7c0,8.4,7.3,15.7,15.7,15.7h40.9c8.4,0,15.7-7.3,15.7-15.7
		C386.1,370.2,379.4,362.9,370.4,362.9z"/>
	<path d="M239.4,362.9h-40.3c-8.4,0-15.7,7.3-15.7,15.7c0,8.4,7.3,15.7,15.7,15.7H240c8.4,0,15.7-7.3,15.7-15.7
		C255.1,370.2,248.4,362.9,239.4,362.9L239.4,362.9z"/>
	<path d="M501.5,362.9h-40.9c-8.4,0-15.7,7.3-15.7,15.7c0,8.4,7.3,15.7,15.7,15.7h40.9c8.4,0,15.7-7.3,15.7-15.7
		C517.2,370.2,510.4,362.9,501.5,362.9z"/>
	<path d="M370.4,463.1h-40.9c-8.4,0-15.7,7.3-15.7,15.7c0,8.4,7.3,15.7,15.7,15.7h40.9c8.4,0,15.7-7.3,15.7-15.7
		C386.1,470.4,379.4,463.1,370.4,463.1z"/>
	<path d="M239.4,463.1h-40.3c-8.4,0-15.7,7.3-15.7,15.7c0,8.4,7.3,15.7,15.7,15.7H240c8.4,0,15.7-7.3,15.7-15.7
		C255.6,470.4,248.4,463.1,239.4,463.1L239.4,463.1z"/>
	<path d="M501.5,463.1h-40.9c-8.4,0-15.7,7.3-15.7,15.7c0,8.4,7.3,15.7,15.7,15.7h40.9c8.4,0,15.7-7.3,15.7-15.7
		C517.2,470.4,510.4,463.1,501.5,463.1z"/>
</g>
</svg>
