<?xml version="1.0" encoding="utf-8"?>
<!-- Generator: Adobe Illustrator 26.2.1, SVG Export Plug-In . SVG Version: 6.00 Build 0)  -->
<svg version="1.1" id="Vrstva_1" xmlns="http://www.w3.org/2000/svg" xmlns:xlink="http://www.w3.org/1999/xlink" x="0px" y="0px"
	 viewBox="0 0 700 700" style="enable-background:new 0 0 700 700;" xml:space="preserve">
<g>
	<path d="M324.7,123.2c-2.8-22.4-21.8-39.2-44.2-39.2h-1.1c-10.6,0-20.7,3.9-28.6,10.1c-5.6-5-12.9-8.4-20.7-9.5
		c-2.2-0.6-5-0.6-7.3-0.6c-10.6,0-20.7,3.9-28.6,10.1c-7.8-6.7-17.9-10.1-28.6-10.1h-1.1c-22.4,0-41.4,16.8-44.2,39.2l-10.1,82.9
		c-5,38.1,9.5,75.6,38.1,101.4l18.5,16.2c-12.3,131.6-18.5,235.2,17.4,275c10.1,11.2,23.5,17.4,38.6,17.4s28-6.2,38.6-17.4
		c35.8-39.2,29.7-142.8,17.4-275l18.5-16.2c28.6-25.2,42.6-63.3,38.1-101.4L324.7,123.2z M276.6,285l-26.3,23.5
		c-2.2,2.2-3.4,5-3.4,8.4c9.5,100.8,26.3,269.9-25.2,269.9S187,418.3,196.5,317c0.6-3.4-1.1-6.2-3.4-8.4L166.8,285
		c-20.2-19-30.8-47-26.9-75l10.1-82.9c1.1-7.3,7.3-12.9,14.6-12.9h1.1c8.4,0,15.1,7.3,14.6,15.7l-6.2,82.3
		c-0.6,9,6.7,16.8,15.7,16.8h1.1c8.4-0.6,14.6-7.8,15.1-16.2l2.2-84c0-7.8,6.7-14.6,14.6-14.6h2.2c7.3,1.1,12.3,7.8,12.3,15.1
		l2.2,84.6c0,8.4,7.3,15.7,15.7,15.7c9,0,16.2-7.8,15.7-16.8l-6.2-82.3c-0.6-8.4,6.2-15.7,14.6-15.7h1.1c7.3,0,13.4,5.6,14.6,12.9
		l10.1,82.3C308.5,238,297.9,266,276.6,285L276.6,285z"/>
	<path d="M590.7,215.6c0-72.8-51-131.6-113.7-131.6c-62.7,0-113.7,58.8-113.7,131.6c0,48.2,21.8,91.3,57.1,114.2
		c-12.3,128.8-17.4,230.2,17.9,268.8c10.1,11.2,23.5,17.4,38.6,17.4s28-6.2,38.6-17.4c35.3-38.6,29.7-140,17.9-268.8
		C568.3,306.9,590.7,263.2,590.7,215.6L590.7,215.6z M507.9,310.2c-3.4,1.7-5.6,5.6-5,9.5c9.5,101.4,25.8,266.6-25.2,266.6
		c-51,0-34.7-165.2-25.2-266.6c0.6-3.9-1.7-7.8-5-9.5c-31.4-14.6-53.2-51.5-53.2-94.6c0-56,37.5-101.4,84-101.4s84,45.4,84,101.4
		C561.1,258.7,538.7,295.1,507.9,310.2L507.9,310.2z"/>
	<path d="M488.3,143.9c-7.3-2.8-15.7,1.7-17.9,9c-2.8,7.3,1.7,15.7,9,17.9c11.2,3.9,24.1,23,24.1,47c0,7.8,6.2,14,14,14
		c7.8,0,14-6.2,14-14C531.4,183.7,513.5,152.9,488.3,143.9L488.3,143.9z"/>
</g>
</svg>
