<?xml version="1.0" encoding="utf-8"?>
<!-- Generator: Adobe Illustrator 26.2.1, SVG Export Plug-In . SVG Version: 6.00 Build 0)  -->
<svg version="1.1" id="Vrstva_1" xmlns="http://www.w3.org/2000/svg" xmlns:xlink="http://www.w3.org/1999/xlink" x="0px" y="0px"
	 viewBox="0 0 700 700" style="enable-background:new 0 0 700 700;" xml:space="preserve">
<path d="M510.3,616H190c-21.3,0-38.6-17.4-38.6-38.6V384.7h-11.2c-18.5,0-34.7-10.6-42-28s-3.4-36.4,10.1-49.3l210-210
	C326.6,89,338.4,84,350.1,84c12.3,0,23.5,4.5,31.9,13.4l210,210c13.4,13.4,16.8,31.9,10.1,49.3c-6.7,17.4-23,28-42,28h-11.2v192.6
	C548.9,598.6,531.6,616,510.3,616L510.3,616z M350.1,113.7c-4.5,0-8.4,1.7-11.2,4.5l-210,210c-6.7,6.7-4.5,15.1-3.4,17.4
	s5,9.5,14.6,9.5h26.3c8.4,0,14.6,6.7,14.6,14.6v207.8c0,5,3.9,9,9,9h320.3c5,0,9-3.9,9-9V370.2c0-8.4,6.7-14.6,14.6-14.6h26.3
	c9.5,0,13.4-7.3,14.6-9.5c1.1-2.2,3.4-10.1-3.4-17.4l-210-210.6C358.5,115.4,354.6,113.7,350.1,113.7L350.1,113.7z"/>
</svg>
