<?xml version="1.0" encoding="utf-8"?>
<!-- Generator: Adobe Illustrator 26.2.1, SVG Export Plug-In . SVG Version: 6.00 Build 0)  -->
<svg version="1.1" id="Vrstva_1" xmlns="http://www.w3.org/2000/svg" xmlns:xlink="http://www.w3.org/1999/xlink" x="0px" y="0px"
	 viewBox="0 0 700 700" style="enable-background:new 0 0 700 700;" xml:space="preserve">
<path d="M571.7,225.7L442.9,96.9c-7.8-7.8-18.5-12.3-29.1-12.3L197.1,84c-11.2,0-21.3,4.5-29.7,12.3c-7.8,7.8-12.3,18.5-12.3,29.7
	v52.6h-25.2c-7.3,0-12.9,5.6-12.9,12.9s5.6,12.9,12.9,12.9h25.2v80.1h-25.2c-7.3,0-12.9,5.6-12.9,12.9s5.6,12.9,12.9,12.9h25.2v80.1
	h-25.2c-7.3,0-12.9,5.6-12.9,12.9s5.6,12.9,12.9,12.9h25.2v80.1h-25.2c-7.3,0-12.9,5.6-12.9,12.9c0,7.3,5.6,12.9,12.9,12.9h25.2
	v52.6c0,23,18.5,41.4,41.4,41.4h345c23,0,41.4-18.5,41.4-41.4V254.9C584,243.6,579.5,233.5,571.7,225.7L571.7,225.7z M431.1,121.5
	L547,237.4H445.7c-7.8,0-14.6-6.7-14.6-14.6V121.5z M542,590.2H197c-9,0-15.7-7.3-15.7-15.7v-52.6h25.2c7.3,0,12.9-5.6,12.9-12.9
	s-5.6-12.9-12.9-12.9h-25.2V416h25.2c7.3,0,12.9-5.6,12.9-12.9s-5.6-12.9-12.9-12.9h-25.2v-80.6h25.2c7.3,0,12.9-5.6,12.9-12.9
	s-5.6-12.9-12.9-12.9h-25.2v-80.1h25.2c7.3,0,12.9-5.6,12.9-12.9c0-7.3-5.6-12.9-12.9-12.9h-25.2v-52.5c0-4.5,1.7-8.4,4.5-11.2
	c2.8-2.8,6.7-4.5,11.2-4.5l207.8,0.6v112.6c0,22.4,17.9,40.3,40.3,40.3h112.6v311.4C558.3,583,551,590.2,542,590.2L542,590.2z"/>
</svg>
