<?xml version="1.0" encoding="utf-8"?>
<!-- Generator: Adobe Illustrator 26.2.1, SVG Export Plug-In . SVG Version: 6.00 Build 0)  -->
<svg version="1.1" id="Vrstva_1" xmlns="http://www.w3.org/2000/svg" xmlns:xlink="http://www.w3.org/1999/xlink" x="0px" y="0px"
	 viewBox="0 0 700 700" style="enable-background:new 0 0 700 700;" xml:space="preserve">
<path d="M121,200.9H99.7c-9,0-15.7,7.3-15.7,15.7c0,9,7.3,15.7,15.7,15.7h20.7v57.1H99.7c-9,0-15.7,7.3-15.7,15.7
	c0,9,7.3,15.7,15.7,15.7h20.7v57.7H99.7c-9,0-15.7,7.3-15.7,15.7c0,9,7.3,15.7,15.7,15.7h20.7v57.7H99.7c-9,0-15.7,7.3-15.7,15.7
	c0,9,7.3,15.7,15.7,15.7H121c1.1,42.6,35.8,76.7,79,76.7h337c43.7,0,79-35.3,79-79V203.3c0-43.7-35.3-79-79-79H199.9
	C156.8,124.2,122.1,158.4,121,200.9L121,200.9z M537,155.6c26.3,0,47.6,21.3,47.6,47.6v293.4c0,26.3-21.3,47.6-47.6,47.6H199.9
	c-25.2,0-45.9-20.2-47-44.8h20.7c9,0,15.7-7.3,15.7-15.7c0-9-7.3-15.7-15.7-15.7h-21.3v-57.1h21.3c9,0,15.7-7.3,15.7-15.7
	c0-9-7.3-15.7-15.7-15.7h-21.3v-57.1h21.3c9,0,15.7-7.3,15.7-15.7c0-9-7.3-15.7-15.7-15.7h-21.3v-58.8h21.3c9,0,15.7-7.3,15.7-15.7
	c0-9-7.3-15.7-15.7-15.7h-20.7c1.1-25.2,21.8-44.8,47-44.8H537V155.6z"/>
<path d="M476.3,218.3c-14.6-14.6-38.1-14.6-52.6,0L263.5,378.5c-5.6,5.6-9.5,12.9-11.2,20.7l-14,68.3c-1.1,6.7,0.6,14,5.6,19
	c3.9,3.9,9,6.2,14.6,6.2c1.1,0,2.8,0,3.9-0.6l68.3-14c7.8-1.7,15.1-5.6,20.7-11.2l160.7-160.7c14.6-14.6,14.6-38.1,0-52.6
	L476.3,218.3z M329.5,445.1c-1.1,1.1-2.8,2.2-5,2.8l-52.1,10.6l10.6-52.6c0.6-1.7,1.1-3.4,2.8-5l119.3-119.3l44.2,44.2L329.5,445.1z
	 M490.3,284.4l-19,19l-44.2-44.2l19-19c1.1-1.1,2.8-1.7,3.9-1.7s2.8,0.6,3.9,1.7l35.8,35.8C492.5,278.8,492.5,282.1,490.3,284.4
	L490.3,284.4z"/>
</svg>
